<svg xmlns="http://www.w3.org/2000/svg" width="100.002" height="75.455"><defs><linearGradient id="a" x1="1" x2="0" y2="1" gradientUnits="objectBoundingBox"><stop offset="0" stop-color="#ffcf52"/><stop offset="1" stop-color="#fad766"/></linearGradient></defs><path data-name="Path 1" d="M92.727 75.455H7.272A7.3 7.3 0 0 1 0 68.182V7.273A7.3 7.3 0 0 1 7.272 0h85.455A7.3 7.3 0 0 1 100 7.273v60.909a7.3 7.3 0 0 1-7.273 7.273" fill="url(#a)" transform="translate(.001)"/><path data-name="Path 2" d="M72.124 28.485h27.877v-1.818H70.354a2.324 2.324 0 0 0-2.172 1.5c-2.287 6.072-2.433 12.594-.438 19.842a8.705 8.705 0 0 1-.1 5.03c-2.036 6.195-7.779 19.988-18.551 19.988-11.008 0-16.1-15.7-17.334-21.952a4.9 4.9 0 0 1 .107-2.357c1.7-5.648 2.094-10.64-.016-19.59a5.448 5.448 0 0 1 .048-2.646C36.378 9.731 44.78 6.339 44.863 6.307a.909.909 0 0 0 .593-.852V0h-1.818v3.776a1.876 1.876 0 0 1-.884 1.6c-2.8 1.742-8.9 6.936-12.557 20.456a1.522 1.522 0 0 1-1.473 1.133L.001 26.822v1.818l27.416.133a3.122 3.122 0 0 1 3.037 2.478c1.416 6.741 1.219 11.039.082 15.458a2.809 2.809 0 0 1-2.69 2.109l-27.845.27v1.819l28.6-.278a1.445 1.445 0 0 1 1.435 1.152c1.442 7.041 6.887 23.07 19.05 23.07 6.368 0 12.062-4.25 16.467-12.29a54.345 54.345 0 0 0 4.548-11.346h29.9V49.4H71.986a2.58 2.58 0 0 1-2.485-1.892 30.133 30.133 0 0 1-.2-16.959 2.94 2.94 0 0 1 2.827-2.061ZM54.974 6.571c.045.022 4.519 2.322 9.253 10.041a.91.91 0 0 0 1.347.232.955.955 0 0 0 .172-1.235c-3.57-5.8-7.024-8.71-8.775-9.931a1.6 1.6 0 0 1-.68-1.315V0h-1.818v5.758a.909.909 0 0 0 .5.813Z" fill="#323232"/></svg>